<svg xmlns="http://www.w3.org/2000/svg" width="1600" height="1000" viewBox="0 0 1600 1000">
  <defs>
    <filter id="shadow" x="-20%" y="-20%" width="140%" height="140%">
      <feDropShadow dx="0" dy="14" stdDeviation="18" flood-color="#000000" flood-opacity="0.45"/>
    </filter>
    <linearGradient id="chromeGrad" x1="0" y1="0" x2="0" y2="1">
      <stop offset="0%" stop-color="#151D2B" stop-opacity="0.92"/>
      <stop offset="100%" stop-color="#111827" stop-opacity="0.92"/>
    </linearGradient>
    <linearGradient id="sidebarGrad" x1="0" y1="0" x2="0" y2="1">
      <stop offset="0%" stop-color="#0F1726" stop-opacity="1"/>
      <stop offset="100%" stop-color="#0C1322" stop-opacity="1"/>
    </linearGradient>
    <linearGradient id="selGrad" x1="0" y1="0" x2="1" y2="0">
      <stop offset="0%" stop-color="#4DA3FF" stop-opacity="0.32"/>
      <stop offset="100%" stop-color="#4DA3FF" stop-opacity="0.12"/>
    </linearGradient>
    <style>
      .h1 { font-family: -apple-system, system-ui, "SF Pro Display", "Helvetica Neue", Arial, sans-serif; font-size: 16px; fill: #E6EDF7; font-weight: 600; }
      .h2 { font-family: -apple-system, system-ui, "SF Pro Display", "Helvetica Neue", Arial, sans-serif; font-size: 13px; fill: #B7C3D9; font-weight: 600; }
      .t  { font-family: -apple-system, system-ui, "SF Pro Text", "Helvetica Neue", Arial, sans-serif; font-size: 12px; fill: #B7C3D9; }
      .t2 { font-family: -apple-system, system-ui, "SF Pro Text", "Helvetica Neue", Arial, sans-serif; font-size: 11px; fill: #7E8AA6; }
      .mono { font-family: ui-monospace, SFMono-Regular, Menlo, Monaco, Consolas, "Liberation Mono", monospace; font-size: 12px; fill: #D7E0F2; }
      .btn { fill: rgba(255,255,255,0.06); stroke: #25324A; stroke-width: 1; }
      .btnText { font-family: -apple-system, system-ui, "SF Pro Text", "Helvetica Neue", Arial, sans-serif; font-size: 12px; fill: #B7C3D9; font-weight: 600; }
      .segText { font-family: -apple-system, system-ui, "SF Pro Text", "Helvetica Neue", Arial, sans-serif; font-size: 12px; fill: #B7C3D9; font-weight: 600; }
      .segTextOn { fill: #E6EDF7; }
      .rule { stroke: #1D2940; stroke-width: 1; }
    </style>
  </defs>
<rect x="0" y="0" width="1600" height="1000" fill="#0B0F14"/>
<rect x="60" y="60" width="1480" height="880" rx="18" fill="#121824" filter="url(#shadow)"/>
<rect x="60" y="60" width="1480" height="56" rx="18" fill="url(#chromeGrad)"/>
<rect x="60" y="98" width="1480" height="18" fill="url(#chromeGrad)"/>
<line x1="60" y1="116" x2="1540" y2="116" class="rule"/>
<rect x="60" y="116" width="310" height="794" fill="url(#sidebarGrad)"/>
<line x1="370" y1="116" x2="370" y2="910" class="rule"/>
<rect x="60" y="910" width="1480" height="30" fill="#111827"/>
<line x1="60" y1="910" x2="1540" y2="910" class="rule"/>
<circle cx="80" cy="78" r="6" fill="#FF5F57"/>
<circle cx="94" cy="78" r="6" fill="#FEBC2E"/>
<circle cx="108" cy="78" r="6" fill="#28C840"/>
<text x="170" y="83" class="h1">Orbit</text>
<text x="170" y="101" class="t2">轻量 SSH 管理终端</text>
<rect x="620.0" y="73" width="360" height="30" rx="9" fill="rgba(255,255,255,0.06)" stroke="#25324A" stroke-width="1"/>
<text x="634.0" y="93" class="t2">搜索服务器</text>
<rect x="1458" y="73" width="64" height="30" rx="9" class="btn"/>
<text x="1490" y="93" text-anchor="middle" class="btnText">设置</text>
<rect x="1386" y="73" width="64" height="30" rx="9" class="btn"/>
<text x="1418" y="93" text-anchor="middle" class="btnText">添加</text>
<text x="78" y="140" class="h2">服务器</text>
<text x="78" y="162" class="t2">生产环境  ·  2</text>
<rect x="70" y="166" width="290" height="34" rx="10" fill="url(#selGrad)" stroke="rgba(77,163,255,0.35)" stroke-width="1"/>
<circle cx="84" cy="183" r="4" fill="#42D392"/>
<text x="96" y="186" class="t">web-01</text>
<text x="96" y="202" class="t2">root@10.0.1.8:22</text>
<rect x="70" y="206" width="290" height="34" rx="10" fill="rgba(255,255,255,0.00)"/>
<circle cx="84" cy="223" r="4" fill="rgba(66,211,146,0.75)"/>
<text x="96" y="226" class="t">db-01</text>
<text x="96" y="242" class="t2">ubuntu@10.0.1.9:22</text>
<text x="78" y="260" class="t2">测试环境  ·  1</text>
<rect x="70" y="264" width="290" height="34" rx="10" fill="rgba(255,255,255,0.00)"/>
<circle cx="84" cy="281" r="4" fill="rgba(66,211,146,0.75)"/>
<text x="96" y="284" class="t">staging-01</text>
<text x="96" y="300" class="t2">dev@10.0.2.4:22</text>
<text x="78" y="318" class="t2">默认  ·  1</text>
<rect x="70" y="322" width="290" height="34" rx="10" fill="rgba(255,255,255,0.00)"/>
<circle cx="84" cy="339" r="4" fill="rgba(66,211,146,0.75)"/>
<text x="96" y="342" class="t">local-vm</text>
<text x="96" y="358" class="t2">user@192.168.64.2:22</text>
<rect x="390" y="74" width="310" height="28" rx="9" fill="rgba(255,255,255,0.05)" stroke="#25324A" stroke-width="1"/>
<line x1="493.3333333333333" y1="79" x2="493.3333333333333" y2="97" stroke="#25324A" stroke-width="1"/>
<line x1="596.6666666666666" y1="79" x2="596.6666666666666" y2="97" stroke="#25324A" stroke-width="1"/>
<rect x="391.0" y="75" width="101.33333333333333" height="26" rx="8" fill="rgba(255,255,255,0.10)" stroke="rgba(255,255,255,0.10)" stroke-width="1"/>
<text x="441.6666666666667" y="93" text-anchor="middle" class="segText segTextOn">终端</text>
<text x="545.0" y="93" text-anchor="middle" class="segText">文件</text>
<text x="648.3333333333333" y="93" text-anchor="middle" class="segText">监控</text>
<rect x="1364" y="73" width="78" height="30" rx="9" class="btn"/>
<text x="1403" y="93" text-anchor="middle" class="btnText">分屏</text>
<rect x="370" y="116" width="1170" height="794" fill="#121824"/>
<rect x="390" y="134" width="1130" height="758" rx="14" fill="#0E1421" stroke="#1D2940" stroke-width="1"/>
<text x="408" y="166" class="t2">已连接：web-01  ·  xterm (GPU 加速)</text>
<line x1="390" y1="178" x2="1520" y2="178" class="rule"/>
<text x="408" y="208" class="mono">Last login: Tue 09:41:22 from 10.0.0.12</text>
<text x="408" y="226" class="mono">Welcome to Ubuntu 22.04.4 LTS (GNU/Linux 6.5.0-26-generic aarch64)</text>
<text x="408" y="244" class="mono"></text>
<text x="408" y="262" class="mono">root@web-01:~# uptime</text>
<text x="408" y="280" class="mono"> 09:42:05 up 3 days,  4:12,  2 users,  load average: 0.12, 0.20, 0.18</text>
<text x="408" y="298" class="mono"></text>
<text x="408" y="316" class="mono">root@web-01:~# tail -n 4 /var/log/nginx/access.log</text>
<text x="408" y="334" class="mono">10.0.0.3 - - [27/Apr/2026:09:41:58 +0000] &quot;GET /health HTTP/1.1&quot; 200 2</text>
<text x="408" y="352" class="mono">10.0.0.3 - - [27/Apr/2026:09:41:59 +0000] &quot;GET /api/status HTTP/1.1&quot; 200 54</text>
<text x="408" y="370" class="mono"></text>
<text x="408" y="388" class="mono">root@web-01:~# _</text>
<text x="78" y="930" class="t2">已连接：web-01  •  上行 120KB/s  •  下行 1.2MB/s</text>
<text x="1522" y="930" text-anchor="end" class="t2">分屏 x1</text>
</svg>
